<svg width="32" height="32" viewBox="0 0 32 32" fill="none" xmlns="http://www.w3.org/2000/svg">
<g clip-path="url(#clip0_1261_28572)">
<path d="M24.2861 16.8366L17.5281 22.8383C17.4419 22.9149 17.3353 22.965 17.2212 22.9825C17.1072 23 16.9905 22.9841 16.8852 22.9369C16.7799 22.8896 16.6906 22.8129 16.6279 22.716C16.5652 22.6191 16.5318 22.5062 16.5318 22.3908V19.034C16.5318 19.034 10.966 18.5781 7.1298 22.9105C7.07991 22.9665 7.0138 23.0055 6.94067 23.0222C6.86755 23.0388 6.79105 23.0323 6.72183 23.0034C6.65261 22.9746 6.59411 22.9248 6.55447 22.8612C6.51484 22.7975 6.49604 22.7231 6.5007 22.6482C6.68455 19.7074 7.97244 11.7448 16.5318 11.7448V8.38843C16.5318 8.27302 16.5651 8.16006 16.6278 8.06316C16.6905 7.96625 16.7798 7.88952 16.8851 7.8422C16.9903 7.79488 17.107 7.77899 17.2211 7.79643C17.3352 7.81388 17.4418 7.86392 17.5281 7.94053L24.2861 13.9422C24.4906 14.1238 24.6542 14.3467 24.7663 14.5961C24.8784 14.8456 24.9364 15.1159 24.9364 15.3894C24.9364 15.6629 24.8784 15.9332 24.7663 16.1827C24.6542 16.4321 24.4906 16.655 24.2861 16.8366Z" fill="url(#paint0_linear_1261_28572)"/>
<path d="M32.0002 9.23073V23.9796C32.0002 26.1068 31.1552 28.1469 29.651 29.651C28.1469 31.1552 26.1068 32.0002 23.9796 32.0002H10.4101C10.4101 32.0002 7.69918 31.9958 5.58105 29.152C6.37181 29.5328 7.2384 29.73 8.11607 29.7288H23.8844C24.6519 29.7288 25.4119 29.5776 26.121 29.2838C26.8301 28.9901 27.4744 28.5595 28.0171 28.0168C28.5598 27.474 28.9903 26.8297 29.284 26.1206C29.5777 25.4115 29.7288 24.6515 29.7288 23.8839V8.11607C29.73 7.2384 29.5328 6.37181 29.152 5.58105C30.0101 6.11269 31.2869 7.20121 32.0002 9.23073Z" fill="url(#paint1_linear_1261_28572)"/>
<path d="M29.1518 5.58091H29.1514C28.6742 4.58928 27.9266 3.75257 26.9948 3.16709C26.0629 2.58161 24.9847 2.27117 23.8842 2.27148H8.11593C7.34842 2.27147 6.58842 2.42263 5.87934 2.71633C5.17025 3.01004 4.52595 3.44053 3.98325 3.98324C3.44053 4.52595 3.01004 5.17025 2.71633 5.87933C2.42263 6.58842 2.27147 7.34842 2.27149 8.11593V23.8838C2.27087 24.6515 2.42163 25.4118 2.71511 26.1211C3.0086 26.8305 3.43907 27.4751 3.98189 28.0179C4.52472 28.5608 5.16924 28.9913 5.8786 29.2849C6.58796 29.5784 7.34823 29.7292 8.11593 29.7287H23.8842C24.6518 29.7286 25.4118 29.5774 26.1209 29.2837C26.83 28.9899 27.4743 28.5594 28.017 28.0166C28.5597 27.4739 28.9902 26.8296 29.2839 26.1205C29.5775 25.4113 29.7287 24.6513 29.7287 23.8838V8.11593C29.7298 7.23826 29.5326 6.37167 29.1518 5.58091ZM24.2861 16.8365L17.5281 22.8382C17.4418 22.9149 17.3352 22.965 17.2212 22.9825C17.1071 22.9999 16.9904 22.9841 16.8851 22.9368C16.7799 22.8895 16.6905 22.8129 16.6278 22.716C16.5651 22.6191 16.5317 22.5062 16.5317 22.3908V19.0339C16.5317 19.0339 10.9659 18.5781 7.12974 22.9104C7.07985 22.9664 7.01374 23.0055 6.94062 23.0221C6.8675 23.0388 6.791 23.0322 6.72178 23.0034C6.65256 22.9745 6.59405 22.9248 6.55442 22.8611C6.51478 22.7975 6.49598 22.723 6.50064 22.6482C6.6845 19.7073 7.97239 11.7448 16.5317 11.7448V8.38839C16.5317 8.27298 16.565 8.16002 16.6277 8.06311C16.6904 7.96621 16.7798 7.88948 16.885 7.84216C16.9903 7.79484 17.107 7.77894 17.2211 7.79639C17.3352 7.81383 17.4418 7.86387 17.5281 7.94049L24.2861 13.9422C24.4905 14.1238 24.6542 14.3467 24.7663 14.5961C24.8784 14.8455 24.9363 15.1159 24.9363 15.3894C24.9363 15.6628 24.8784 15.9332 24.7663 16.1826C24.6542 16.4321 24.4905 16.6549 24.2861 16.8365Z" fill="white"/>
<path d="M32 8.0206V9.23051C31.2867 7.201 30.0099 6.11247 29.1518 5.58084H29.1513C28.6741 4.58921 27.9265 3.7525 26.9947 3.16702C26.0629 2.58154 24.9846 2.27109 23.8841 2.27141H8.11585C7.34834 2.27139 6.58835 2.42255 5.87926 2.71626C5.17017 3.00996 4.52588 3.44046 3.98317 3.98317C3.44046 4.52588 3.00996 5.17017 2.71626 5.87926C2.42255 6.58835 2.27139 7.34834 2.27141 8.11585V23.8837C2.27121 24.9843 2.58169 26.0626 3.16715 26.9945C3.75261 27.9265 4.58925 28.6742 5.58084 29.1518C7.69896 31.9956 10.4099 32 10.4099 32H8.0206C5.89341 32 3.85334 31.155 2.34919 29.6508C0.845041 28.1467 1.17542e-05 26.1066 4.40555e-09 23.9794V8.0206C-3.49053e-05 6.96731 0.2074 5.92433 0.61046 4.95121C1.01352 3.97809 1.60431 3.09389 2.3491 2.3491C3.09389 1.60431 3.97809 1.01352 4.95121 0.61046C5.92433 0.2074 6.96731 -3.49053e-05 8.0206 4.40555e-09H23.9794C25.0327 -3.49053e-05 26.0757 0.2074 27.0488 0.61046C28.0219 1.01352 28.9061 1.60431 29.6509 2.3491C30.3957 3.09389 30.9865 3.97809 31.3895 4.95121C31.7926 5.92433 32 6.96731 32 8.0206Z" fill="url(#paint2_linear_1261_28572)"/>
</g>
<defs>
<linearGradient id="paint0_linear_1261_28572" x1="17.2698" y1="6.46835" x2="17.2698" y2="23.709" gradientUnits="userSpaceOnUse">
<stop stop-color="#EB00FF"/>
<stop offset="1" stop-color="#4663FF"/>
</linearGradient>
<linearGradient id="paint1_linear_1261_28572" x1="27.501" y1="2.50024" x2="16.001" y2="35.0002" gradientUnits="userSpaceOnUse">
<stop stop-color="#4663FF"/>
<stop offset="1" stop-color="#EB00FF"/>
</linearGradient>
<linearGradient id="paint2_linear_1261_28572" x1="18.6931" y1="-17.7969" x2="18.6931" y2="33.423" gradientUnits="userSpaceOnUse">
<stop stop-color="#EB00FF"/>
<stop offset="1" stop-color="#4663FF"/>
</linearGradient>
<clipPath id="clip0_1261_28572">
<rect width="32" height="32" fill="white"/>
</clipPath>
</defs>
</svg>
